<svg width="32" height="32" viewBox="0 0 32 32" fill="none" xmlns="http://www.w3.org/2000/svg">
<g clip-path="url(#clip0_1015_8326)">
<path d="M25.2903 19.823C24.6351 19.1409 23.8449 18.7761 23.0075 18.7761C22.1767 18.7761 21.3798 19.1341 20.6977 19.8162L18.5634 21.9437C18.3878 21.8491 18.2122 21.7613 18.0434 21.6735C17.8003 21.552 17.5706 21.4371 17.3748 21.3156C15.3756 20.0459 13.5589 18.3912 11.8164 16.2502C10.9722 15.1831 10.4048 14.2849 9.99285 13.3731C10.5467 12.8666 11.06 12.3398 11.5597 11.8332C11.7488 11.6441 11.938 11.4482 12.1271 11.2591C13.5454 9.84084 13.5454 8.0038 12.1271 6.5855L10.2833 4.74171C10.0739 4.53234 9.85777 4.31622 9.65516 4.1001C9.24993 3.68136 8.82444 3.24911 8.38544 2.84389C7.73032 2.19552 6.94688 1.85107 6.12291 1.85107C5.29895 1.85107 4.502 2.19552 3.82661 2.84389C3.81986 2.85064 3.81986 2.85064 3.81311 2.85739L1.51681 5.17395C0.652318 6.03844 0.15929 7.09204 0.0512285 8.31448C-0.110863 10.2866 0.469965 12.1236 0.915717 13.3258C2.00984 16.2772 3.64426 19.0125 6.08239 21.9437C9.04056 25.4759 12.5998 28.2653 16.6656 30.2306C18.219 30.9668 20.2924 31.838 22.609 31.9866C22.7508 31.9934 22.8994 32.0001 23.0345 32.0001C24.5946 32.0001 25.9049 31.4396 26.9314 30.3252C26.9382 30.3117 26.9517 30.3049 26.9584 30.2914C27.3096 29.8659 27.7149 29.4809 28.1404 29.069C28.4308 28.7921 28.7279 28.5016 29.0184 28.1977C29.687 27.5021 30.0382 26.6916 30.0382 25.8609C30.0382 25.0234 29.6802 24.2197 28.9981 23.5443L25.2903 19.823ZM27.7081 26.9348C27.7014 26.9415 27.7014 26.9348 27.7081 26.9348C27.4447 27.2184 27.1746 27.4751 26.8842 27.7587C26.4452 28.1775 25.9994 28.6165 25.5807 29.1095C24.8985 29.8389 24.0948 30.1833 23.0412 30.1833C22.9399 30.1833 22.8319 30.1833 22.7306 30.1766C20.7247 30.0483 18.8606 29.2648 17.4626 28.5962C13.6399 26.7456 10.2833 24.1184 7.49394 20.7888C5.19089 18.013 3.65101 15.4465 2.63119 12.691C2.00308 11.0093 1.77345 9.69901 1.87476 8.46306C1.9423 7.67287 2.24622 7.01775 2.80679 6.45718L5.10984 4.15413C5.44078 3.84345 5.79198 3.67461 6.13642 3.67461C6.56191 3.67461 6.90636 3.93125 7.12248 4.14737C7.12923 4.15413 7.13598 4.16088 7.14274 4.16763C7.55472 4.5526 7.94644 4.95108 8.35843 5.37657C8.56779 5.59269 8.78392 5.80881 9.00004 6.03169L10.8438 7.87548C11.5597 8.59139 11.5597 9.25326 10.8438 9.96916C10.648 10.165 10.4589 10.3609 10.263 10.55C9.69568 11.1308 9.15538 11.6711 8.5678 12.1979C8.55429 12.2114 8.54078 12.2182 8.53403 12.2317C7.9532 12.8125 8.06126 13.3798 8.18283 13.7648C8.18958 13.7851 8.19633 13.8053 8.20309 13.8256C8.68261 14.9873 9.35799 16.0814 10.3846 17.3849L10.3913 17.3916C12.2554 19.6879 14.2207 21.4777 16.3887 22.8487C16.6656 23.0243 16.9493 23.1661 17.2194 23.3012C17.4626 23.4228 17.6922 23.5376 17.8881 23.6592C17.9151 23.6727 17.9421 23.6929 17.9691 23.7064C18.1987 23.8212 18.4149 23.8753 18.6377 23.8753C19.1983 23.8753 19.5495 23.5241 19.6643 23.4093L21.9741 21.0995C22.2038 20.8698 22.5685 20.5929 22.994 20.5929C23.4127 20.5929 23.7571 20.8563 23.9665 21.0859C23.9733 21.0927 23.9733 21.0927 23.98 21.0995L27.7014 24.8208C28.397 25.5097 28.397 26.2189 27.7081 26.9348Z" fill="#8B1812"/>
<path d="M17.2974 7.61195C19.0669 7.90911 20.6743 8.74659 21.9575 10.0298C23.2407 11.313 24.0715 12.9204 24.3754 14.6899C24.4497 15.1357 24.8346 15.4464 25.2736 15.4464C25.3277 15.4464 25.3749 15.4396 25.429 15.4329C25.9288 15.3518 26.2597 14.8791 26.1786 14.3793C25.8139 12.2383 24.8009 10.2865 23.2542 8.73983C21.7076 7.19321 19.7558 6.18014 17.6148 5.81543C17.115 5.73438 16.649 6.06532 16.5612 6.55835C16.4734 7.05138 16.7976 7.5309 17.2974 7.61195Z" fill="#8B1812"/>
<path d="M31.9657 14.1159C31.3646 10.5904 29.7032 7.38232 27.1502 4.82937C24.5973 2.27643 21.3892 0.61499 17.8637 0.0139004C17.3707 -0.0738993 16.9047 0.263792 16.8169 0.756821C16.7358 1.2566 17.0668 1.72262 17.5666 1.81042C20.7138 2.34397 23.5842 3.83656 25.867 6.1126C28.1498 8.39539 29.6356 11.2658 30.1692 14.413C30.2435 14.8588 30.6284 15.1695 31.0674 15.1695C31.1215 15.1695 31.1688 15.1627 31.2228 15.156C31.7158 15.0817 32.0535 14.6089 31.9657 14.1159Z" fill="#8B1812"/>
</g>
<defs>
<clipPath id="clip0_1015_8326">
<rect width="32" height="32" fill="white"/>
</clipPath>
</defs>
</svg>
