<svg width="100" height="100" viewBox="0 0 100 100" fill="none" xmlns="http://www.w3.org/2000/svg">
<g clip-path="url(#clip0_1060_8379)">
<path d="M89.1289 65.3115C89.0322 65.1498 88.9305 64.9949 88.8289 64.8582C87.8189 63.4464 86.3172 62.5132 84.6039 62.2314C82.8988 61.9498 81.1705 62.3513 79.7639 63.3615L61.1305 76.6666H41.6639C40.7455 76.6666 39.9973 75.9199 39.9973 75C39.9973 74.08 40.7455 73.3334 41.6639 73.3334H52.4973C55.7139 73.3334 58.3307 70.7168 58.3307 67.5C58.3307 67.4816 58.3289 67.3283 58.3273 67.3117C58.224 64.0966 55.5123 61.59 52.3641 61.6668H30.6824C28.7607 61.6834 26.8891 62.3718 25.4141 63.6017L17.2641 70.3851C16.884 70.7035 16.6641 71.1718 16.6641 71.6668V91.6668C16.6641 92.5884 17.4107 93.3334 18.3307 93.3334H59.6824C62.3891 93.33 65.0258 92.3767 67.1092 90.6517L87.3143 73.9568C90.059 72.0013 90.8557 68.2048 89.1289 65.3115ZM85.2873 71.3148L64.9855 88.0832C63.4955 89.3166 61.6105 89.9964 59.6805 89.9998H19.9973V72.448L27.5488 66.1613C28.4355 65.423 29.5572 65.0095 30.6973 64.9996L52.4172 64.998C53.7988 64.9962 54.9521 66.0414 54.9973 67.4998C54.9973 68.8781 53.8756 69.9998 52.4973 69.9998H41.6639C38.9072 69.9998 36.6639 72.2431 36.6639 74.9998C36.6639 77.7564 38.9072 79.9998 41.6639 79.9998H61.6639C62.0105 79.9998 62.3488 79.8914 62.6355 79.6898L81.7055 66.0714C82.3922 65.5781 83.2271 65.3865 84.0639 65.5197C84.8988 65.658 85.6289 66.1113 86.1305 66.8113C86.1805 66.8797 86.2254 66.9496 86.2687 67.0212C87.1123 68.4332 86.7205 70.288 85.2873 71.3148Z" fill="#8B1812"/>
<path d="M18.2834 68.333H0V71.6664H16.6166V96.6664H0V99.9996H18.2834C19.2033 99.9996 19.95 99.2547 19.95 98.333V69.9996C19.95 69.0779 19.2033 68.333 18.2834 68.333Z" fill="#8B1812"/>
<path d="M8.33594 83.333C5.5793 83.333 3.33594 85.5764 3.33594 88.333C3.33594 91.0896 5.5793 93.333 8.33594 93.333C11.0926 93.333 13.3359 91.0896 13.3359 88.333C13.3359 85.5764 11.0926 83.333 8.33594 83.333ZM8.33594 89.9996C7.41758 89.9996 6.66934 89.2529 6.66934 88.333C6.66934 87.4131 7.41758 86.6664 8.33594 86.6664C9.2543 86.6664 10.0025 87.4131 10.0025 88.333C10.0025 89.2529 9.2543 89.9996 8.33594 89.9996Z" fill="#8B1812"/>
<path d="M98.3334 51.667H1.6666C0.74668 51.667 0 52.4119 0 53.3336C0 59.7652 5.2334 65.0002 11.6666 65.0002H88.3332C94.7648 65.0002 99.9998 59.7652 99.9998 53.3336C100 52.4121 99.2551 51.667 98.3334 51.667ZM88.3334 61.667H11.6666C7.6416 61.667 4.275 58.7986 3.50156 55.0004H96.4982C95.725 58.7986 92.3584 61.667 88.3334 61.667Z" fill="#8B1812"/>
<path d="M49.9975 8.33301C26.1041 8.33301 6.66406 27.773 6.66406 51.6664V53.333C6.66406 54.2547 7.41074 54.9996 8.33066 54.9996H91.6641C92.5857 54.9996 93.3307 54.2547 93.3307 53.333V51.6664C93.3309 27.7729 73.8924 8.33301 49.9975 8.33301ZM9.99746 51.6662C9.99746 29.6111 27.9424 11.6662 49.9975 11.6662C72.0525 11.6662 89.9975 29.6111 89.9975 51.6662H9.99746Z" fill="#8B1812"/>
<path d="M22.585 27.3447C21.4199 28.6547 20.34 30.0564 19.375 31.5131L22.1533 33.3547C23.0334 32.0279 24.0166 30.7496 25.0766 29.558L22.585 27.3447Z" fill="#8B1812"/>
<path d="M49.9979 15C40.6379 15.0051 31.7262 18.5416 24.9062 24.9533L27.1896 27.3816C33.3896 21.5516 41.4912 18.3383 49.9996 18.3334L49.9979 15Z" fill="#8B1812"/>
<path d="M55 0H45V3.3334H55V0Z" fill="#8B1812"/>
<path d="M51.6693 1.66699H48.3359V10.0004H51.6693V1.66699Z" fill="#8B1812"/>
</g>
<defs>
<clipPath id="clip0_1060_8379">
<rect width="100" height="100" fill="white"/>
</clipPath>
</defs>
</svg>
