<svg width="32" height="32" viewBox="0 0 32 32" fill="none" xmlns="http://www.w3.org/2000/svg">
<path d="M16 2.15394e-10C12.8355 -1.64162e-05 9.74203 0.938358 7.11083 2.69646C4.47963 4.45456 2.42886 6.95343 1.21785 9.87705C0.0068388 12.8007 -0.310015 16.0178 0.307356 19.1215C0.924726 22.2252 2.44859 25.0761 4.68625 27.3137C7.4594 30.0867 11.1543 31.7447 15.0693 31.9729C18.9843 32.2011 22.8468 30.9837 25.9234 28.5518C26.2068 28.3274 26.4396 28.0456 26.6064 27.7248C26.7732 27.4041 26.8702 27.0517 26.8911 26.6908C26.912 26.3299 26.8563 25.9686 26.7277 25.6308C26.5991 25.2929 26.4004 24.9861 26.1447 24.7305L24.793 23.3788L25.2814 22.8904C25.6164 22.5549 25.8046 22.1001 25.8046 21.626C25.8046 21.1519 25.6164 20.6972 25.2814 20.3617L21.8219 16.9021C21.4864 16.5671 21.0316 16.379 20.5575 16.379C20.0834 16.379 19.6286 16.5671 19.2931 16.9021L17.7737 18.4216C16.3006 17.3075 14.6925 15.6994 13.5785 14.2264L15.0979 12.7069C15.4329 12.3714 15.6211 11.9167 15.6211 11.4426C15.6211 10.9684 15.4329 10.5137 15.0979 10.1782L11.6384 6.71875C11.3029 6.38376 10.8481 6.19561 10.374 6.19561C9.89992 6.19561 9.44519 6.38376 9.10969 6.71875L7.18394 8.64444C6.79541 9.02281 6.50674 9.49159 6.34376 10.0088C6.18078 10.5261 6.14856 11.0757 6.25 11.6084C7.28175 17.4492 14.5508 24.7183 20.3916 25.75C20.5963 25.7865 20.8038 25.805 21.0117 25.8053C21.4487 25.8054 21.8812 25.718 22.2838 25.548C22.6864 25.3781 23.0508 25.1292 23.3554 24.8159L23.3785 24.7929L24.7302 26.1446C24.7864 26.2007 24.83 26.2681 24.8582 26.3422C24.8865 26.4164 24.8987 26.4957 24.8941 26.5749C24.8895 26.6541 24.8682 26.7315 24.8316 26.8019C24.795 26.8723 24.7439 26.9342 24.6817 26.9834C22.2154 28.9476 19.1528 30.0117 16 30C8.28037 30 2 23.7196 2 16C2 8.28038 8.28037 2 16 2C23.7196 2 30 8.28038 30 16C30.0051 18.0323 29.5638 20.0409 28.7074 21.8839C28.5958 22.1245 28.5844 22.3996 28.6756 22.6487C28.7668 22.8977 28.9532 23.1003 29.1938 23.2119C29.4344 23.3235 29.7095 23.335 29.9586 23.2437C30.2076 23.1525 30.4102 22.9661 30.5218 22.7255C31.6504 20.2871 32.1469 17.6038 31.9656 14.923C31.7842 12.2423 30.9307 9.6503 29.4839 7.38617C28.0371 5.12205 26.0436 3.25865 23.687 1.9678C21.3305 0.676955 18.6869 0.000219708 16 2.15394e-10ZM20.7395 23.7807C18.3798 23.3638 15.4596 21.6035 12.9281 19.0719C10.3966 16.5404 8.63619 13.6201 8.21931 11.2606C8.17509 11.0445 8.18666 10.8207 8.25294 10.6104C8.31923 10.4001 8.43803 10.2101 8.59812 10.0584L10.374 8.28256L13.5339 11.4425L11.8444 13.132C11.5975 13.3777 11.446 13.7032 11.4169 14.0504C11.3878 14.3975 11.4831 14.7437 11.6856 15.0271C13.0206 16.9041 15.096 18.9794 16.9731 20.3146C17.2565 20.5171 17.6027 20.6123 17.9498 20.5832C18.297 20.5541 18.6225 20.4026 18.8682 20.1557L20.5576 18.4662L23.7176 21.6261L22.6719 22.6716L21.9416 23.4019C21.7899 23.562 21.6 23.6808 21.3896 23.7471C21.1793 23.8134 20.9555 23.8249 20.7395 23.7807Z" fill="white"/>
</svg>
