<svg width="150" height="150" viewBox="0 0 150 150" fill="none" xmlns="http://www.w3.org/2000/svg">
<path d="M75 37.5C71.5454 37.5 68.75 40.2954 68.75 43.75V75C68.75 76.6602 69.4092 78.2471 70.5811 79.4189L89.3311 98.1689C90.5518 99.3897 92.1509 100 93.75 100C95.3491 100 96.9482 99.3897 98.1689 98.1689C100.61 95.7275 100.61 91.7725 98.1689 89.3311L81.25 72.4121V43.75C81.25 40.2954 78.4546 37.5 75 37.5Z" fill="#8B1812"/>
<path d="M131.25 68.75C127.795 68.75 125 71.5454 125 75C125 102.57 102.57 125 75 125C47.4304 125 25 102.57 25 75C25 47.4304 47.4304 25 75 25C90.3748 25 104.48 32.0496 113.855 43.75H100C96.5454 43.75 93.75 46.5454 93.75 50C93.75 53.4546 96.5454 56.25 100 56.25H125C128.455 56.25 131.25 53.4546 131.25 50V25C131.25 21.5454 128.455 18.75 125 18.75C121.545 18.75 118.75 21.5454 118.75 25V30.542C107.263 19.1895 91.7297 12.5 75 12.5C40.5396 12.5 12.5 40.5396 12.5 75C12.5 109.46 40.5396 137.5 75 137.5C109.46 137.5 137.5 109.46 137.5 75C137.5 71.5454 134.705 68.75 131.25 68.75Z" fill="#8B1812"/>
</svg>
